<svg xmlns="http://www.w3.org/2000/svg" width="26" height="26" viewBox="0 0 26 26">
    <path d="M 21 17 L 17 17 C 17 17 16 17.5 16 19 C 16 20.5 17 21 17 21 L 21 21" fill="transparent" stroke-width="2" stroke="rgba(63, 63, 63, 1.00)" stroke-linejoin="round"></path>
    <path d="M 20 13 C 20 12 19 11 18 11 C 18 11 16 11 16 11" fill="transparent" stroke-width="2" stroke="hsl(0, 0%, 25%)" stroke-linecap="round" stroke-linejoin="round"></path>
    <path d="M 10 11 C 10 11 6 11 6 11 C 4.5 11 4 11.5 4 13 C 4 13 4 22 4 22 C 4 23.5 4.5 24 6 24 C 6 24 20 24 20 24 C 21.5 24 22 23.5 22 22 C 22 22 22 17 22 16 C 22 14.5 21.5 14 20 14 C 19 14 8 14 8 14" fill="transparent" stroke-width="2" stroke="hsl(0, 0%, 25%)" stroke-linecap="round" stroke-linejoin="round"></path>
    <path d="M 4 0 L 4 9 M 0 5 L 4 9 L 8 5" transform="translate(9 2) rotate(180 4 4.5)" fill="transparent" stroke-width="2" stroke="rgba(178, 51, 56, 1.00)" stroke-linecap="round" stroke-linejoin="round"></path>
</svg>
