<svg xmlns="http://www.w3.org/2000/svg" width="26" height="26"><path d="M 20.5 16.5 L 17 16.5 C 17 16.5 16.5 17 16.5 18.5 C 16.5 20 17 20.5 17 20.5 L 20.5 20.5" fill="transparent" stroke-width="2" stroke="rgba(63, 63, 63, 1.00)" stroke-linejoin="round"></path><path d="M 19.5 13.5 L 19.5 12 C 19.5 12 19.375 11.375 19 11 C 18.625 10.625 18 10.5 18 10.5 L 17.5 10.5" fill="transparent" stroke-width="2" stroke="hsl(0, 0%, 25%)" stroke-linecap="round" stroke-linejoin="round"></path><path d="M 8.5 10.5 L 6 10.5 C 6 10.5 5.5 10.5 5 11 C 4.5 11.5 4.5 12 4.5 12 L 4.5 22 C 4.5 22 4.625 22.625 5 23 C 5.375 23.375 6 23.5 6 23.5 L 20 23.5 C 20 23.5 20.625 23.375 21 23 C 21.375 22.625 21.5 22 21.5 22 L 21.5 15 C 21.5 15 21.375 14.375 21 14 C 20.625 13.625 20 13.5 20 13.5 L 7.5 13.5" fill="transparent" stroke-width="2" stroke="hsl(0, 0%, 25%)" stroke-linecap="round" stroke-linejoin="round"></path><path d="M 13 2 L 13 11 M 9.5 7.429 L 13 11 L 16.5 7.429" fill="transparent" stroke-width="2" stroke="rgba(50, 164, 54, 1.00)" stroke-linecap="round" stroke-linejoin="round"></path></svg>